<?xml version="1.0" encoding="UTF-8"?>
<svg version="1.1" xmlns="http://www.w3.org/2000/svg" width="231" height="48">
<path d="M0 0 C2.64 0 5.28 0 8 0 C8 0.66 8 1.32 8 2 C8.33 2 8.66 2 9 2 C9.33 1.34 9.66 0.68 10 0 C12.64 0 15.28 0 18 0 C18 0.66 18 1.32 18 2 C14.535 3.485 14.535 3.485 11 5 C13.36292656 7.52588702 14.66462511 8.88820837 18 10 C18 10.66 18 11.32 18 12 C19.65 12 21.3 12 23 12 C21.31192092 7.76915097 21.31192092 7.76915097 18 5 C18 4.34 18 3.68 18 3 C19.65 3 21.3 3 23 3 C23.66 4.32 24.32 5.64 25 7 C25.66 5.68 26.32 4.36 27 3 C30 4 30 4 32 6 C32.33 5.01 32.66 4.02 33 3 C37.29 3.33 41.58 3.66 46 4 C45.67 5.65 45.34 7.3 45 9 C48.24565858 9.34055197 48.24565858 9.34055197 50.6875 6.5 C51.450625 5.675 52.21375 4.85 53 4 C54.37562854 5.28965176 55.70766393 6.62689293 57 8 C57 8.66 57 9.32 57 10 C57.99 10 58.98 10 60 10 C59.505 7.03 59.505 7.03 59 4 C60.65 4 62.3 4 64 4 C63.67 5.98 63.34 7.96 63 10 C65.97 9.505 65.97 9.505 69 9 C69.33 8.01 69.66 7.02 70 6 C68.68 6.33 67.36 6.66 66 7 C66 6.01 66 5.02 66 4 C71.28 4 76.56 4 82 4 C82.495 4.99 82.495 4.99 83 6 C83.66 6 84.32 6 85 6 C85 5.34 85 4.68 85 4 C86.65 4 88.3 4 90 4 C90.07329796 8.39787789 90.07396066 11.70415737 89 16 C60.95 16 32.9 16 4 16 C4 15.01 4 14.02 4 13 C2.68 12.67 1.36 12.34 0 12 C0 11.34 0 10.68 0 10 C0.66 10 1.32 10 2 10 C2 7.36 2 4.72 2 2 C1.34 2 0.68 2 0 2 C0 1.34 0 0.68 0 0 Z M36 5 C33.74114676 8.25397508 33.74114676 8.25397508 33 12 C34.32 12 35.64 12 37 12 C37.33 10.02 37.66 8.04 38 6 C37.34 5.67 36.68 5.34 36 5 Z M73 6 C73.33 7.98 73.66 9.96 74 12 C73.01 12.33 72.02 12.66 71 13 C74.63 13 78.26 13 82 13 C80.68 12.34 79.36 11.68 78 11 C78.33 9.35 78.66 7.7 79 6 C77.02 6 75.04 6 73 6 Z M6 8 C6 8.66 6 9.32 6 10 C6.66 10 7.32 10 8 10 C8 10.99 8 11.98 8 13 C10.31 13 12.62 13 15 13 C12.08596738 11.05731159 9.14191424 9.53604696 6 8 Z M27 8 C26.67 9.32 26.34 10.64 26 12 C29.13349732 13.04449911 29.98968256 12.93423645 33 12 C31.71034824 10.62437146 30.37310707 9.29233607 29 8 C28.34 8 27.68 8 27 8 Z M41 9 C45 10 45 10 45 10 Z M81 9 C81.33 9.99 81.66 10.98 82 12 C83.32 12 84.64 12 86 12 C86.33 11.01 86.66 10.02 87 9 C85.02 9 83.04 9 81 9 Z M50 10 C50 10.66 50 11.32 50 12 C45.71 12 41.42 12 37 12 C37 12.33 37 12.66 37 13 C43.93 13.495 43.93 13.495 51 14 C51 13.34 51 12.68 51 12 C52.32 11.67 53.64 11.34 55 11 C55 10.67 55 10.34 55 10 C53.35 10 51.7 10 50 10 Z M54 12 C54 12.33 54 12.66 54 13 C58.62 13 63.24 13 68 13 C68 12.67 68 12.34 68 12 C63.38 12 58.76 12 54 12 Z " fill="#000000" transform="translate(89,9)"/>
<path d="M0 0 C1.65 0 3.3 0 5 0 C5.66 1.32 6.32 2.64 7 4 C7.66 2.68 8.32 1.36 9 0 C12 1 12 1 14 3 C14.33 2.01 14.66 1.02 15 0 C19.29 0.33 23.58 0.66 28 1 C27.67 2.65 27.34 4.3 27 6 C30.24565858 6.34055197 30.24565858 6.34055197 32.6875 3.5 C33.450625 2.675 34.21375 1.85 35 1 C36.37562854 2.28965176 37.70766393 3.62689293 39 5 C39 5.66 39 6.32 39 7 C39.66 7 40.32 7 41 7 C41 7.66 41 8.32 41 9 C37.37471432 9.20140476 35.13498292 8.85776765 32 7 C32 7.66 32 8.32 32 9 C27.71 9 23.42 9 19 9 C19 7.02 19 5.04 19 3 C17.49440461 4.96382007 16.10868317 6.78263366 15 9 C12.00667261 8.0022242 11.05233685 7.2477975 9 5 C8.67 6.32 8.34 7.64 8 9 C4.51866169 7.60746468 3.52113967 6.36823784 2 3 C1.34 2.67 0.68 2.34 0 2 C0 1.34 0 0.68 0 0 Z M23 6 C27 7 27 7 27 7 Z " fill="#9AF49B" transform="translate(107,12)"/>
<path d="M0 0 C1.65 0 3.3 0 5 0 C4.67 1.98 4.34 3.96 4 6 C5.98 5.67 7.96 5.34 10 5 C10.33 4.01 10.66 3.02 11 2 C9.68 2.33 8.36 2.66 7 3 C7 2.01 7 1.02 7 0 C12.28 0 17.56 0 23 0 C23.33 0.66 23.66 1.32 24 2 C24.66 2 25.32 2 26 2 C26 1.34 26 0.68 26 0 C27.65 0 29.3 0 31 0 C31 2.64 31 5.28 31 8 C29.68 8 28.36 8 27 8 C27 7.34 27 6.68 27 6 C25.68 6 24.36 6 23 6 C23 6.66 23 7.32 23 8 C21.35 8 19.7 8 18 8 C18.33 6.35 18.66 4.7 19 3 C16.525 2.505 16.525 2.505 14 2 C14.33 3.98 14.66 5.96 15 8 C10.05 8 5.1 8 0 8 C0 5.36 0 2.72 0 0 Z " fill="#23D543" transform="translate(148,13)"/>
<path d="M0 0 C2.64 0 5.28 0 8 0 C8 0.66 8 1.32 8 2 C8.33 2 8.66 2 9 2 C9.33 1.34 9.66 0.68 10 0 C12.64 0 15.28 0 18 0 C18 0.66 18 1.32 18 2 C14.535 3.485 14.535 3.485 11 5 C13.36292656 7.52588702 14.66462511 8.88820837 18 10 C18 10.66 18 11.32 18 12 C13.32538149 12.32613618 10.83325617 11.70582788 7 9 C7.33 9.33 7.66 9.66 8 10 C8 10.66 8 11.32 8 12 C5.36 12 2.72 12 0 12 C0 11.34 0 10.68 0 10 C0.66 10 1.32 10 2 10 C2 7.36 2 4.72 2 2 C1.34 2 0.68 2 0 2 C0 1.34 0 0.68 0 0 Z " fill="#8F9DD4" transform="translate(89,9)"/>
<path d="M0 0 C1.95803507 -0.05389087 3.91648909 -0.09274217 5.875 -0.125 C7.51082031 -0.15980469 7.51082031 -0.15980469 9.1796875 -0.1953125 C12 0 12 0 14 2 C13.625 4.625 13.625 4.625 13 7 C12.030625 7.12375 11.06125 7.2475 10.0625 7.375 C8.5465625 7.684375 8.5465625 7.684375 7 8 C6.67 8.66 6.34 9.32 6 10 C6.66 10 7.32 10 8 10 C8 10.66 8 11.32 8 12 C5.36 12 2.72 12 0 12 C0 11.34 0 10.68 0 10 C0.66 10 1.32 10 2 10 C2 7.36 2 4.72 2 2 C1.34 2 0.68 2 0 2 C0 1.34 0 0.68 0 0 Z M6 2 C6 2.99 6 3.98 6 5 C7.32 5 8.64 5 10 5 C10 4.34 10 3.68 10 3 C8.68 2.67 7.36 2.34 6 2 Z " fill="#7D8CCB" transform="translate(74,9)"/>
<path d="M0 0 C4.75 0.875 4.75 0.875 7 2 C7 1.34 7 0.68 7 0 C8.65 0 10.3 0 12 0 C12 2.64 12 5.28 12 8 C10.68 8 9.36 8 8 8 C8 7.34 8 6.68 8 6 C6.68 6 5.36 6 4 6 C4 6.66 4 7.32 4 8 C2.35 8 0.7 8 -1 8 C-0.835 7.05125 -0.67 6.1025 -0.5 5.125 C0.0526635 2.19831099 0.0526635 2.19831099 0 0 Z " fill="#03CD2B" transform="translate(167,13)"/>
<path d="M0 0 C2.64 0 5.28 0 8 0 C8 0.66 8 1.32 8 2 C7.34 2 6.68 2 6 2 C6 4.64 6 7.28 6 10 C6.66 10 7.32 10 8 10 C8 10.66 8 11.32 8 12 C5.36 12 2.72 12 0 12 C0 11.34 0 10.68 0 10 C0.66 10 1.32 10 2 10 C2 7.36 2 4.72 2 2 C1.34 2 0.68 2 0 2 C0 1.34 0 0.68 0 0 Z " fill="#7C8ACB" transform="translate(65,9)"/>
<path d="M0 0 C2.64 0 5.28 0 8 0 C8 0.66 8 1.32 8 2 C7.01 2 6.02 2 5 2 C5 4.64 5 7.28 5 10 C5.99 10 6.98 10 8 10 C8 10.66 8 11.32 8 12 C5.36 12 2.72 12 0 12 C0 11.34 0 10.68 0 10 C0.66 10 1.32 10 2 10 C2 7.36 2 4.72 2 2 C1.34 2 0.68 2 0 2 C0 1.34 0 0.68 0 0 Z " fill="#7282C7" transform="translate(89,9)"/>
<path d="M0 0 C1.65 0 3.3 0 5 0 C4.67 1.98 4.34 3.96 4 6 C5.98 5.67 7.96 5.34 10 5 C10 5.99 10 6.98 10 8 C6.7 8 3.4 8 0 8 C0 5.36 0 2.72 0 0 Z " fill="#47DE60" transform="translate(148,13)"/>
<path d="M0 0 C4.23429756 1.31061591 8.07407404 2.94356259 12 5 C12 5.66 12 6.32 12 7 C7.3824571 7.32215416 4.66125071 6.92900057 1 4 C0.1875 1.8125 0.1875 1.8125 0 0 Z " fill="#7281C6" transform="translate(95,14)"/>
<path d="M0 0 C0.99 0 1.98 0 3 0 C2.67 1.65 2.34 3.3 2 5 C0.02 5.33 -1.96 5.66 -4 6 C-4.33 5.01 -4.66 4.02 -5 3 C-3.35 3 -1.7 3 0 3 C0 2.01 0 1.02 0 0 Z " fill="#717FC3" transform="translate(85,11)"/>
<path d="M0 0 C1.98 0.66 3.96 1.32 6 2 C6 2.99 6 3.98 6 5 C3.525 4.01 3.525 4.01 1 3 C1.33 3.99 1.66 4.98 2 6 C1.34 6.66 0.68 7.32 0 8 C0 5.36 0 2.72 0 0 Z " fill="#AFBCE5" transform="translate(94,11)"/>
</svg>
